<svg width="105" height="70" viewBox="0 0 105 70" fill="none" xmlns="http://www.w3.org/2000/svg">
<g clip-path="url(#clip0_65_141)">
<path d="M92.7071 30.1071C92.3045 31.8167 90.9938 32.9693 89.7825 32.683C88.5713 32.3966 87.9171 30.7804 88.3197 29.0708C88.7222 27.3611 90.0329 26.2097 91.243 26.4961C92.453 26.7824 93.1108 28.3986 92.7059 30.1059" fill="#009AFF"/>
<path d="M7.85671 15.726H18.6826V18.6013H11.5839V21.7164H17.8272V24.6313H11.5839V30.6217H7.86151L7.85671 15.726Z" fill="#475564"/>
<path d="M20.0258 24.9203V15.6951H23.747V24.574C23.763 25.3914 24.0989 26.1698 24.6826 26.7422C25.2663 27.3145 26.0511 27.6351 26.8686 27.6351C27.6861 27.6351 28.4709 27.3145 29.0546 26.7422C29.6383 26.1698 29.9742 25.3914 29.9902 24.574V15.6951H33.7126V24.9203C33.7126 28.7601 31.0062 30.8173 26.868 30.8173C22.7298 30.8173 20.0246 28.7601 20.0246 24.9203" fill="#475564"/>
<path d="M35.9567 15.6951H39.6803V27.719H46.7095V30.5836H35.9567V15.6951Z" fill="#475564"/>
<path d="M48.1428 15.6951H51.8664V27.719H58.8968V30.5836H48.1428V15.6951Z" fill="#475564"/>
<path d="M60.6526 18.5621H56.282V15.6951H68.7421V18.5621H64.3726V30.5848H60.649L60.6526 18.5621Z" fill="#475564"/>
<path d="M73.8961 15.6951H70.1725V30.5848H73.8961V15.6951Z" fill="#475564"/>
<path d="M7.85671 33.756H18.6826V36.6314H11.5839V39.7464H17.8272V42.6601H11.5839V48.6505H7.86151L7.85671 33.756Z" fill="#475564"/>
<path d="M18.6847 41.2362C18.6847 35.7346 21.251 33.4906 26.1128 33.4906C30.9459 33.4906 33.5349 35.7334 33.5349 41.2362C33.5349 46.4634 30.9459 48.8428 26.1128 48.8428C21.2558 48.8428 18.6847 46.4634 18.6847 41.2362V41.2362ZM29.7143 41.2362C29.7143 37.9067 28.6036 36.6835 26.108 36.6835C23.592 36.6835 22.4778 37.9079 22.4778 41.2362C22.4778 44.2901 23.5861 45.6775 26.108 45.6775C28.6036 45.6775 29.7143 44.2901 29.7143 41.2362Z" fill="#475564"/>
<path d="M35.1455 33.7207H42.5928C46.1067 33.7207 47.7241 35.7347 47.7241 38.8329C47.7486 39.7577 47.4893 40.6679 46.981 41.4409C46.4727 42.2139 45.7399 42.8128 44.8811 43.1568C45.3172 43.545 45.644 44.0407 45.8288 44.5945L47.5876 48.6165H43.7022L42.038 44.8245C41.9415 44.5245 41.7429 44.2678 41.4767 44.0991C41.2106 43.9303 40.8937 43.8602 40.5812 43.9008H38.8703V48.6165H35.1467L35.1455 33.7207ZM41.6151 41.029C41.9193 41.0747 42.2299 41.0505 42.5232 40.9581C42.8166 40.8657 43.085 40.7076 43.3081 40.4959C43.5312 40.2841 43.703 40.0243 43.8106 39.7361C43.9181 39.448 43.9585 39.139 43.9286 38.8329C43.9286 37.3509 43.2098 36.5901 41.7721 36.5901H38.8595V41.023L41.6151 41.029Z" fill="#475564"/>
<path d="M48.8173 41.2848C48.8173 36.3116 51.4758 33.4913 56.7953 33.4913C58.3311 33.4754 59.8575 33.7338 61.3025 34.2545V37.5132C59.9629 36.9547 58.5245 36.6719 57.0732 36.6818C53.9738 36.6818 52.6104 38.1195 52.6104 41.2848C52.6104 44.3112 54.1367 45.6782 57.12 45.6782C58.5624 45.6888 59.9925 45.4131 61.3276 44.8671V48.1546C59.8751 48.64 58.3505 48.8742 56.8192 48.8471C51.6172 48.8471 48.8185 46.028 48.8185 41.2884" fill="#475564"/>
<path d="M63.2181 33.7207H74.2021V36.5961H66.943V39.7111H73.3467V42.6237H66.943V45.7458H74.2021V48.6129H63.2181V33.7207Z" fill="#475564"/>
<path d="M99.0133 24.5966H104.142V21.6816H98.0081C98.5197 21.8733 99.3057 22.4652 99.0625 24.309C99.0505 24.3893 99.0325 24.4971 99.0157 24.5966" fill="#475564"/>
<path d="M97.3701 30.5846H104.997V27.72H98.2639C98.0243 28.5754 97.7247 29.5386 97.3701 30.5846Z" fill="#475564"/>
<path d="M94.016 15.6951V27.247C94.4784 25.953 94.9109 24.6232 95.1553 23.8708L95.3075 23.4011C95.4472 22.8701 95.7649 22.4032 96.2077 22.0785C96.6504 21.7537 97.1912 21.5909 97.7396 21.6172V18.5621H105V15.6951H94.016Z" fill="#475564"/>
<path d="M79.9846 22.0305L82.945 28.0437H85.0009L87.9386 22.0305V27.09C88.2423 26.5724 88.6689 26.1376 89.1807 25.8241C89.6925 25.5106 90.2736 25.3282 90.8727 25.2929C91.0898 25.2927 91.306 25.3176 91.5173 25.3672C91.5664 25.3792 91.6132 25.4031 91.6611 25.4175V15.6951H88.0069L83.985 23.9475L79.939 15.6951H76.2609V30.5848H79.9846V22.0305Z" fill="#475564"/>
<path d="M31.2498 13.7755C33.8293 12.3737 36.5358 11.0607 39.3692 9.86616C63.6663 -0.369053 87.9311 2.13614 87.9311 13.7755H91.6547C91.6547 -0.590698 67.0941 -4.88941 38.8193 6.85059C34.1986 8.77877 29.7498 11.0954 25.5206 13.7755H31.2498Z" fill="#009AFF"/>
<path d="M96.414 23.7645C96.075 24.796 94.9296 28.437 94.061 30.2904C92.1932 34.2777 91.1401 34.1962 85.8086 35.5752C80.4772 36.9542 78.2511 41.3044 77.1441 43.5041C76.0371 45.7038 77.0854 47.181 78.329 45.2389C79.4968 43.1958 81.0002 41.3639 82.7763 39.82C84.4668 38.6399 86.6748 37.8384 84.5075 42.0137C82.2311 46.3771 77.5586 51.8164 69.6285 56.4242C65.7294 58.4684 61.7119 60.2783 57.5974 61.8443C33.1361 71.1139 9.46324 68.1522 3.8035 54.7193C1.5535 49.3807 2.48561 43.1578 5.90014 36.9074V31.939C0.326666 40.1243 -1.59027 48.5923 1.41332 55.7245C7.57386 70.3411 32.1657 74.1211 57.7172 64.9617C64.5307 62.532 82.1473 55.7365 90.8274 42.1886C94.2654 36.6572 96.6634 30.544 97.9033 24.1503C98.1932 21.9638 96.7531 22.7293 96.4152 23.7597" fill="#009AFF"/>
</g>
<defs>
<clipPath id="clip0_65_141">
<rect width="105" height="69.844" fill="white" transform="translate(0 0.0780029)"/>
</clipPath>
</defs>
</svg>
